<?xml version="1.0" encoding="UTF-8"?>
<svg version="1.1" xmlns="http://www.w3.org/2000/svg" viewBox="0 0 512 512" preserveAspectRatio="xMidYMid meet">
<path d="M0 0 C0 18.48 0 36.96 0 56 C-11.36785031 61.98307911 -22.67595898 67.89715843 -34.25 73.4375 C-35.59274448 74.08346219 -36.93535246 74.72970816 -38.27783203 75.3762207 C-42.18298241 77.25549852 -46.09119408 79.12834049 -50 81 C-51.60343262 81.76860352 -51.60343262 81.76860352 -53.23925781 82.55273438 C-57.02764601 84.36828753 -60.81634331 86.18313016 -64.60888672 87.98999023 C-69.63529104 90.38473402 -74.65094248 92.7997058 -79.65625 95.23828125 C-80.77660645 95.78202393 -81.89696289 96.3257666 -83.05126953 96.88598633 C-85.20025188 97.92953872 -87.34721142 98.97727158 -89.49169922 100.0300293 C-95.24099634 102.81580532 -100.88981075 105.12772669 -107 107 C-107 107.66 -107 108.32 -107 109 C-106.21305252 109.23097885 -105.42610504 109.4619577 -104.61531067 109.69993591 C-99.93475367 111.3830621 -95.59430231 113.56771103 -91.1550293 115.80102539 C-90.18040237 116.28738968 -89.20577545 116.77375397 -88.20161438 117.27485657 C-84.99051655 118.87855761 -81.78232884 120.48798783 -78.57421875 122.09765625 C-76.343311 123.21370625 -74.11225525 124.32946044 -71.88105774 125.44493103 C-66.6145413 128.07907054 -61.34995957 130.71704603 -56.08616811 133.35662597 C-51.28398698 135.76435039 -46.4796431 138.16773099 -41.67467564 140.56988913 C-36.4752897 143.16927735 -31.27707031 145.77098912 -26.07944679 148.37389946 C-23.86718697 149.48162487 -21.65468142 150.58885968 -19.44193077 151.69560432 C-16.35960547 153.23784524 -13.27860909 154.7827075 -10.19799805 156.32836914 C-9.27594574 156.7891687 -8.35389343 157.24996826 -7.40390015 157.72473145 C-6.56978104 158.14392349 -5.73566193 158.56311554 -4.87626648 158.99501038 C-4.1475468 159.36020814 -3.41882711 159.7254059 -2.66802502 160.10167027 C-1 161 -1 161 0 162 C0.09365006 163.7492872 0.11744438 165.50236254 0.11352539 167.25415039 C0.11344986 168.37523697 0.11337433 169.49632355 0.11329651 170.65138245 C0.10813522 171.8711528 0.10297394 173.09092316 0.09765625 174.34765625 C0.09553383 176.2100016 0.09553383 176.2100016 0.09336853 178.10997009 C0.08870591 181.41605491 0.07971497 184.72207146 0.06866455 188.02813721 C0.05844827 191.3996115 0.05387045 194.77109283 0.04882812 198.14257812 C0.03777395 204.76173775 0.02101736 211.38086493 0 218 C-4.07125173 216.73663701 -7.71806631 215.22710863 -11.46484375 213.19921875 C-13.01679443 212.36233521 -13.01679443 212.36233521 -14.60009766 211.50854492 C-15.70144043 210.9076001 -16.8027832 210.30665527 -17.9375 209.6875 C-19.09556152 209.06012939 -20.25362305 208.43275879 -21.44677734 207.78637695 C-29.65314266 203.33096897 -37.77856844 198.73909462 -45.88818359 194.11035156 C-55.56311303 188.62091298 -65.39357781 183.43368602 -75.22705078 178.23608398 C-76.59019856 177.51551764 -77.95331739 176.79489653 -79.31640625 176.07421875 C-80.31256958 175.5475486 -80.31256958 175.5475486 -81.32885742 175.01023865 C-88.83148957 171.03847973 -96.27918257 166.9679931 -103.72265625 162.88671875 C-107.430996 160.85378752 -111.1479175 158.83766177 -114.87109375 156.83203125 C-125.27700048 151.22581648 -135.64369927 145.56004242 -145.9375 139.75 C-146.93322021 139.18869385 -147.92894043 138.6273877 -148.95483398 138.04907227 C-149.86563721 137.53272217 -150.77644043 137.01637207 -151.71484375 136.484375 C-152.52042725 136.02772461 -153.32601074 135.57107422 -154.15600586 135.10058594 C-156 134 -156 134 -157 133 C-157.09319449 131.4651703 -157.117458 129.92607918 -157.11352539 128.38842773 C-157.11344986 127.40748642 -157.11337433 126.4265451 -157.11329651 125.4158783 C-157.10813522 124.3492244 -157.10297394 123.2825705 -157.09765625 122.18359375 C-157.0962413 121.0974025 -157.09482635 120.01121124 -157.09336853 118.8921051 C-157.08775048 115.40720925 -157.07519492 111.92237658 -157.0625 108.4375 C-157.05748733 106.08138113 -157.05292402 103.72526126 -157.04882812 101.36914062 C-157.03777519 95.57940536 -157.02101951 89.78970719 -157 84 C-156.32759277 83.63874023 -155.65518555 83.27748047 -154.96240234 82.90527344 C-143.29197943 76.63323831 -131.62471307 70.35648744 -120 64 C-112.01690356 59.63495221 -104.01400044 55.30803971 -96 51 C-87.04448453 46.18544015 -78.1055519 41.34209597 -69.18310547 36.46655273 C-59.49907849 31.17599376 -49.79439667 25.9237575 -40.08935547 20.671875 C-34.78821706 17.80304334 -29.48781665 14.93284952 -24.1875 12.0625 C-23.2279541 11.54308838 -22.2684082 11.02367676 -21.27978516 10.48852539 C-19.89412354 9.73817017 -19.89412354 9.73817017 -18.48046875 8.97265625 C-17.1354126 8.2458667 -17.1354126 8.2458667 -15.76318359 7.50439453 C-13.81270858 6.44247308 -11.86825575 5.3694542 -9.92822266 4.28857422 C-8.93741699 3.73830566 -7.94661133 3.18803711 -6.92578125 2.62109375 C-6.02899658 2.11892334 -5.13221191 1.61675293 -4.20825195 1.09936523 C-2 0 -2 0 0 0 Z " fill="currentColor" transform="translate(157,147)"/>
<path d="M0 0 C4.44388865 1.48129622 7.8955221 2.86918433 11.9375 5.0546875 C13.63374512 5.96758545 13.63374512 5.96758545 15.36425781 6.89892578 C16.57624229 7.55748761 17.78815465 8.21618219 19 8.875 C20.2611928 9.55619804 21.52258856 10.23702042 22.78417969 10.91748047 C26.5265171 12.93814191 30.26388655 14.96785897 34 17 C35.01384766 17.55107422 36.02769531 18.10214844 37.07226562 18.66992188 C41.57985514 21.12207556 46.08397233 23.58050654 50.5859375 26.04296875 C56.34089589 29.18939087 62.10699824 32.31506727 67.875 35.4375 C68.87160645 35.97705322 69.86821289 36.51660645 70.89501953 37.07250977 C73.92987241 38.71526648 76.96490282 40.35769469 80 42 C92.57009079 48.80173506 105.13552046 55.61144601 117.6784668 62.46313477 C125.7634516 66.8773128 133.86409493 71.2623867 141.97070312 75.63671875 C142.91751953 76.14847656 143.86433594 76.66023438 144.83984375 77.1875 C146.08302368 77.85845703 146.08302368 77.85845703 147.35131836 78.54296875 C150.58879095 80.323892 153.79185435 82.16677391 157 84 C157 100.17 157 116.34 157 133 C148.55502824 137.82569815 140.12990726 142.59797507 131.5625 147.1875 C123.61047552 151.46806317 115.71760854 155.83486696 107.875 160.3125 C98.36234272 165.73707316 88.72940921 170.90754652 79.05285645 176.03094482 C70.83964906 180.38219505 62.69166794 184.81801431 54.625 189.4375 C43.87556015 195.59117897 32.95275129 201.39935027 21.99853516 207.17749023 C21.01329361 207.6973777 21.01329361 207.6973777 20.00814819 208.22776794 C18.73309396 208.90037466 17.45773185 209.5723981 16.18203735 210.24378967 C11.95058249 212.47694504 7.77099832 214.7870098 3.63232422 217.1875 C2 218 2 218 0 218 C0 199.52 0 181.04 0 162 C10.93351714 156.2455173 21.79791588 150.5313144 32.91821289 145.17480469 C50.53653178 136.67292468 68.07204819 128.01173876 85.5625 119.25 C86.59178619 118.73442535 87.62107239 118.21885071 88.68154907 117.68765259 C94.45576431 114.79455013 100.22852215 111.89855917 106 109 C102.32076604 105.92816407 98.21362875 104.02717605 93.921875 101.97265625 C92.72924042 101.39510841 92.72924042 101.39510841 91.51251221 100.80589294 C89.81000672 99.98188484 88.10658726 99.15976292 86.40234375 98.33935547 C81.94645868 96.19426352 77.49699206 94.03593187 73.046875 91.87890625 C72.16970825 91.45417023 71.2925415 91.0294342 70.38879395 90.59182739 C63.56385144 87.28365871 56.77238699 83.91463427 50 80.5 C41.5050467 76.22225805 32.95858991 72.06622703 24.359375 68.00195312 C16.17142238 64.12248156 8.11222014 60.05611007 0 56 C0 37.52 0 19.04 0 0 Z " fill="currentColor" transform="translate(355,147)"/>
<path d="M0 0 C1.43352212 0.00015908 2.86704998 0.00585132 4.30053711 0.01586914 C5.43041298 0.01799156 5.43041298 0.01799156 6.58311462 0.02015686 C8.99807646 0.02577163 11.41294687 0.03832656 13.82788086 0.05102539 C15.46134307 0.05603849 17.09480672 0.06060173 18.72827148 0.06469727 C22.74067671 0.07574585 26.75301326 0.09302033 30.76538086 0.11352539 C25.14126241 16.59292924 19.01502058 32.87650429 12.84978104 49.15875626 C10.52773654 55.29438779 8.21239595 61.43255619 5.8955555 67.57015419 C4.99130915 69.96539627 4.08678714 72.36053412 3.18223572 74.75566101 C-2.8485294 90.72691566 -8.84587808 106.71064717 -14.83672333 122.69691086 C-15.95433774 125.67907869 -17.0722104 128.66114968 -18.19007492 131.64322376 C-21.58330822 140.69527062 -24.97562093 149.74766235 -28.36774445 158.80012512 C-33.36422254 172.13406351 -38.36121625 185.46780841 -43.35961914 198.80102539 C-43.78405052 199.93323706 -43.78405052 199.93323706 -44.21705627 201.08832169 C-53.84798537 226.77915601 -63.5168717 252.45538264 -73.23461914 278.11352539 C-84.45461914 278.11352539 -95.67461914 278.11352539 -107.23461914 278.11352539 C-105.41664628 272.05361585 -103.61190481 266.15766319 -101.39086914 260.26196289 C-101.11429977 259.51986069 -100.83773041 258.77775848 -100.55278015 258.01316833 C-99.61654861 255.5037628 -98.67559708 252.99615464 -97.73461914 250.48852539 C-97.03947644 248.6288321 -96.34458067 246.76904649 -95.64990234 244.90917969 C-93.63907616 239.52912055 -91.62343791 234.15087471 -89.60675049 228.77301025 C-88.16222603 224.92045241 -86.71858013 221.06756623 -85.27514648 217.21459961 C-76.97229911 195.05292355 -68.65825779 172.89544998 -60.34326935 150.73832703 C-56.25857399 139.8537297 -52.17425997 128.96898946 -48.09097672 118.0838623 C-47.52049653 116.56310361 -46.94999841 115.04235165 -46.37948227 113.52160645 C-38.80551288 93.33258105 -31.25380075 73.13553086 -23.73461914 52.92602539 C-13.78225337 26.1837569 -13.78225337 26.1837569 -9.32568359 14.38510132 C-8.63681775 12.56056392 -7.95031803 10.7351337 -7.26391602 8.90966797 C-6.87010742 7.87092529 -6.47629883 6.83218262 -6.07055664 5.76196289 C-5.56854736 4.43430908 -5.56854736 4.43430908 -5.05639648 3.07983398 C-3.72620968 -0.10297188 -3.70950042 0.13019229 0 0 Z " fill="currentColor" transform="translate(290.234619140625,116.886474609375)"/>
</svg>

